<mxfile host="65bd71144e">
    <diagram id="Ut4gjTAxHDz35pfaoCe4" name="Page-1">
        <mxGraphModel dx="2480" dy="1440" grid="1" gridSize="10" guides="1" tooltips="1" connect="1" arrows="1" fold="1" page="1" pageScale="1" pageWidth="827" pageHeight="1169" math="0" shadow="0">
            <root>
                <mxCell id="0"/>
                <mxCell id="1" parent="0"/>
                <mxCell id="2" value="MAIN PROJECT" style="whiteSpace=wrap;rounded=1;shadow=1;fillColor=#10739E;strokeColor=none;fontColor=#FFFFFF;fontStyle=1;fontSize=24" vertex="1" parent="1">
                    <mxGeometry x="700" y="160" width="340" height="60" as="geometry"/>
                </mxCell>
                <mxCell id="4" value="SUB-PROJECT 2" style="whiteSpace=wrap;rounded=1;fillColor=#F2931E;strokeColor=none;shadow=1;fontColor=#FFFFFF;fontStyle=1;fontSize=14" vertex="1" parent="1">
                    <mxGeometry x="230" y="279.9999999999998" width="140" height="60" as="geometry"/>
                </mxCell>
                <mxCell id="6" value="SUB-PROJECT 3" style="whiteSpace=wrap;rounded=1;fillColor=#F2931E;strokeColor=none;shadow=1;fontColor=#FFFFFF;fontStyle=1;fontSize=14" vertex="1" parent="1">
                    <mxGeometry x="600" y="279.9999999999998" width="140" height="60" as="geometry"/>
                </mxCell>
                <mxCell id="7" value="SUB-PROJECT 4" style="whiteSpace=wrap;rounded=1;fillColor=#F2931E;strokeColor=none;shadow=1;fontColor=#FFFFFF;fontStyle=1;fontSize=14" vertex="1" parent="1">
                    <mxGeometry x="970" y="279.9999999999998" width="140" height="60" as="geometry"/>
                </mxCell>
                <mxCell id="8" value="SUB-PROJECT 5" style="whiteSpace=wrap;rounded=1;fillColor=#F2931E;strokeColor=none;shadow=1;fontColor=#FFFFFF;fontStyle=1;fontSize=14" vertex="1" parent="1">
                    <mxGeometry x="1340" y="279.9999999999998" width="140" height="60" as="geometry"/>
                </mxCell>
                <mxCell id="21" value="SUB-TASK 1" style="whiteSpace=wrap;rounded=1;fillColor=#12AAB5;strokeColor=none;shadow=1;fontColor=#FFFFFF;" vertex="1" parent="1">
                    <mxGeometry x="139.99999999999977" y="410.0000000000001" width="120" height="60" as="geometry"/>
                </mxCell>
                <mxCell id="22" value="SUB-TASK 2" style="whiteSpace=wrap;rounded=1;fillColor=#12AAB5;strokeColor=none;shadow=1;fontColor=#FFFFFF;" vertex="1" parent="1">
                    <mxGeometry x="339.9999999999998" y="410.0000000000001" width="120" height="60" as="geometry"/>
                </mxCell>
                <mxCell id="23" value="WORK&#10;PACKAGE 1" style="whiteSpace=wrap;rounded=1;fillColor=#999999;strokeColor=none;shadow=1;fontColor=#FFFFFF;fontStyle=0" vertex="1" parent="1">
                    <mxGeometry x="139.99999999999972" y="510.0000000000001" width="120" height="60" as="geometry"/>
                </mxCell>
                <mxCell id="24" value="WORK&#10;PACKAGE 2" style="whiteSpace=wrap;rounded=1;fillColor=#999999;strokeColor=none;shadow=1;fontColor=#FFFFFF;fontStyle=0" vertex="1" parent="1">
                    <mxGeometry x="139.9999999999999" y="590.0000000000001" width="120" height="60" as="geometry"/>
                </mxCell>
                <mxCell id="25" value="WORK&#10;PACKAGE 3" style="whiteSpace=wrap;rounded=1;fillColor=#999999;strokeColor=none;shadow=1;fontColor=#FFFFFF;fontStyle=0" vertex="1" parent="1">
                    <mxGeometry x="139.99999999999983" y="670.0000000000001" width="120" height="60" as="geometry"/>
                </mxCell>
                <mxCell id="26" value="WORK&#10;PACKAGE 4" style="whiteSpace=wrap;rounded=1;fillColor=#999999;strokeColor=none;shadow=1;fontColor=#FFFFFF;fontStyle=0" vertex="1" parent="1">
                    <mxGeometry x="140" y="750.0000000000001" width="120" height="60" as="geometry"/>
                </mxCell>
                <mxCell id="27" value="WORK&#10;PACKAGE 5" style="whiteSpace=wrap;rounded=1;fillColor=#999999;strokeColor=none;shadow=1;fontColor=#FFFFFF;fontStyle=0" vertex="1" parent="1">
                    <mxGeometry x="140.0000000000001" y="830.0000000000001" width="120" height="60" as="geometry"/>
                </mxCell>
                <mxCell id="28" value="WORK&#10;PACKAGE 1" style="whiteSpace=wrap;rounded=1;fillColor=#999999;strokeColor=none;shadow=1;fontColor=#FFFFFF;fontStyle=0" vertex="1" parent="1">
                    <mxGeometry x="339.9999999999993" y="510.0000000000001" width="120" height="60" as="geometry"/>
                </mxCell>
                <mxCell id="29" value="WORK&#10;PACKAGE 2" style="whiteSpace=wrap;rounded=1;fillColor=#999999;strokeColor=none;shadow=1;fontColor=#FFFFFF;fontStyle=0" vertex="1" parent="1">
                    <mxGeometry x="339.99999999999955" y="590.0000000000001" width="120" height="60" as="geometry"/>
                </mxCell>
                <mxCell id="30" value="WORK&#10;PACKAGE 3" style="whiteSpace=wrap;rounded=1;fillColor=#999999;strokeColor=none;shadow=1;fontColor=#FFFFFF;fontStyle=0" vertex="1" parent="1">
                    <mxGeometry x="339.99999999999955" y="670.0000000000001" width="120" height="60" as="geometry"/>
                </mxCell>
                <mxCell id="31" value="WORK&#10;PACKAGE 4" style="whiteSpace=wrap;rounded=1;fillColor=#999999;strokeColor=none;shadow=1;fontColor=#FFFFFF;fontStyle=0" vertex="1" parent="1">
                    <mxGeometry x="339.99999999999966" y="750.0000000000001" width="120" height="60" as="geometry"/>
                </mxCell>
                <mxCell id="32" value="WORK&#10;PACKAGE 5" style="whiteSpace=wrap;rounded=1;fillColor=#999999;strokeColor=none;shadow=1;fontColor=#FFFFFF;fontStyle=0" vertex="1" parent="1">
                    <mxGeometry x="339.9999999999998" y="830.0000000000001" width="120" height="60" as="geometry"/>
                </mxCell>
                <mxCell id="45" value="" style="edgeStyle=elbowEdgeStyle;elbow=vertical;rounded=0;fontColor=#000000;endArrow=none;endFill=0;strokeWidth=8;strokeColor=#23445D;" edge="1" parent="1" source="4" target="21">
                    <mxGeometry width="100" height="100" relative="1" as="geometry">
                        <mxPoint x="-60" y="349.9999999999998" as="sourcePoint"/>
                        <mxPoint x="-160" y="420" as="targetPoint"/>
                    </mxGeometry>
                </mxCell>
                <mxCell id="46" value="" style="edgeStyle=elbowEdgeStyle;elbow=vertical;rounded=0;fontColor=#000000;endArrow=none;endFill=0;strokeWidth=8;strokeColor=#23445D;" edge="1" parent="1" source="4" target="22">
                    <mxGeometry width="100" height="100" relative="1" as="geometry">
                        <mxPoint x="-60" y="349.9999999999998" as="sourcePoint"/>
                        <mxPoint x="40" y="420" as="targetPoint"/>
                    </mxGeometry>
                </mxCell>
                <mxCell id="47" value="" style="edgeStyle=elbowEdgeStyle;elbow=horizontal;rounded=0;fontColor=#000000;endArrow=none;endFill=0;strokeWidth=8;strokeColor=#23445D;" edge="1" parent="1" source="21" target="23">
                    <mxGeometry width="100" height="100" relative="1" as="geometry">
                        <mxPoint x="120" y="440.00000000000045" as="sourcePoint"/>
                        <mxPoint x="129.99999999999955" y="540" as="targetPoint"/>
                        <Array as="points">
                            <mxPoint x="120" y="490"/>
                        </Array>
                    </mxGeometry>
                </mxCell>
                <mxCell id="48" value="" style="edgeStyle=elbowEdgeStyle;elbow=horizontal;rounded=0;fontColor=#000000;endArrow=none;endFill=0;strokeWidth=8;strokeColor=#23445D;" edge="1" parent="1" source="21" target="24">
                    <mxGeometry width="100" height="100" relative="1" as="geometry">
                        <mxPoint x="130" y="440" as="sourcePoint"/>
                        <mxPoint x="129.99999999999977" y="620" as="targetPoint"/>
                        <Array as="points">
                            <mxPoint x="120" y="530"/>
                        </Array>
                    </mxGeometry>
                </mxCell>
                <mxCell id="49" value="" style="edgeStyle=elbowEdgeStyle;elbow=horizontal;rounded=0;fontColor=#000000;endArrow=none;endFill=0;strokeWidth=8;strokeColor=#23445D;" edge="1" parent="1" source="21" target="27">
                    <mxGeometry width="100" height="100" relative="1" as="geometry">
                        <mxPoint x="130" y="440" as="sourcePoint"/>
                        <mxPoint x="130" y="860" as="targetPoint"/>
                        <Array as="points">
                            <mxPoint x="120" y="660"/>
                        </Array>
                    </mxGeometry>
                </mxCell>
                <mxCell id="50" value="" style="edgeStyle=elbowEdgeStyle;elbow=horizontal;rounded=0;fontColor=#000000;endArrow=none;endFill=0;strokeWidth=8;strokeColor=#23445D;" edge="1" parent="1" source="21" target="26">
                    <mxGeometry width="100" height="100" relative="1" as="geometry">
                        <mxPoint x="130" y="440" as="sourcePoint"/>
                        <mxPoint x="130" y="780" as="targetPoint"/>
                        <Array as="points">
                            <mxPoint x="120" y="610"/>
                        </Array>
                    </mxGeometry>
                </mxCell>
                <mxCell id="51" value="" style="edgeStyle=elbowEdgeStyle;elbow=horizontal;rounded=0;fontColor=#000000;endArrow=none;endFill=0;strokeWidth=8;strokeColor=#23445D;" edge="1" parent="1" source="21" target="25">
                    <mxGeometry width="100" height="100" relative="1" as="geometry">
                        <mxPoint x="130" y="440" as="sourcePoint"/>
                        <mxPoint x="129.99999999999977" y="700" as="targetPoint"/>
                        <Array as="points">
                            <mxPoint x="120" y="580"/>
                        </Array>
                    </mxGeometry>
                </mxCell>
                <mxCell id="52" value="" style="edgeStyle=elbowEdgeStyle;elbow=horizontal;rounded=0;fontColor=#000000;endArrow=none;endFill=0;strokeWidth=8;strokeColor=#23445D;" edge="1" parent="1" source="22" target="28">
                    <mxGeometry width="100" height="100" relative="1" as="geometry">
                        <mxPoint x="310" y="440.00000000000045" as="sourcePoint"/>
                        <mxPoint x="319.99999999999955" y="540" as="targetPoint"/>
                        <Array as="points">
                            <mxPoint x="320" y="490"/>
                        </Array>
                    </mxGeometry>
                </mxCell>
                <mxCell id="53" value="" style="edgeStyle=elbowEdgeStyle;elbow=horizontal;rounded=0;fontColor=#000000;endArrow=none;endFill=0;strokeWidth=8;strokeColor=#23445D;" edge="1" parent="1" source="22" target="29">
                    <mxGeometry width="100" height="100" relative="1" as="geometry">
                        <mxPoint x="320" y="440" as="sourcePoint"/>
                        <mxPoint x="319.9999999999998" y="620" as="targetPoint"/>
                        <Array as="points">
                            <mxPoint x="320" y="530"/>
                        </Array>
                    </mxGeometry>
                </mxCell>
                <mxCell id="54" value="" style="edgeStyle=elbowEdgeStyle;elbow=horizontal;rounded=0;fontColor=#000000;endArrow=none;endFill=0;strokeWidth=8;strokeColor=#23445D;" edge="1" parent="1" source="22" target="32">
                    <mxGeometry width="100" height="100" relative="1" as="geometry">
                        <mxPoint x="320" y="440" as="sourcePoint"/>
                        <mxPoint x="320" y="860" as="targetPoint"/>
                        <Array as="points">
                            <mxPoint x="320" y="650"/>
                        </Array>
                    </mxGeometry>
                </mxCell>
                <mxCell id="55" value="" style="edgeStyle=elbowEdgeStyle;elbow=horizontal;rounded=0;fontColor=#000000;endArrow=none;endFill=0;strokeWidth=8;strokeColor=#23445D;" edge="1" parent="1" source="22" target="31">
                    <mxGeometry width="100" height="100" relative="1" as="geometry">
                        <mxPoint x="320" y="440" as="sourcePoint"/>
                        <mxPoint x="320" y="780" as="targetPoint"/>
                        <Array as="points">
                            <mxPoint x="320" y="610"/>
                        </Array>
                    </mxGeometry>
                </mxCell>
                <mxCell id="56" value="" style="edgeStyle=elbowEdgeStyle;elbow=horizontal;rounded=0;fontColor=#000000;endArrow=none;endFill=0;strokeWidth=8;strokeColor=#23445D;" edge="1" parent="1" source="22" target="30">
                    <mxGeometry width="100" height="100" relative="1" as="geometry">
                        <mxPoint x="320" y="440" as="sourcePoint"/>
                        <mxPoint x="319.9999999999998" y="700" as="targetPoint"/>
                        <Array as="points">
                            <mxPoint x="320" y="580"/>
                        </Array>
                    </mxGeometry>
                </mxCell>
                <mxCell id="57" value="SUB-TASK 1" style="whiteSpace=wrap;rounded=1;fillColor=#12AAB5;strokeColor=none;shadow=1;fontColor=#FFFFFF;" vertex="1" parent="1">
                    <mxGeometry x="509.9999999999998" y="410.0000000000001" width="120" height="60" as="geometry"/>
                </mxCell>
                <mxCell id="58" value="SUB-TASK 2" style="whiteSpace=wrap;rounded=1;fillColor=#12AAB5;strokeColor=none;shadow=1;fontColor=#FFFFFF;" vertex="1" parent="1">
                    <mxGeometry x="709.9999999999998" y="410.0000000000001" width="120" height="60" as="geometry"/>
                </mxCell>
                <mxCell id="59" value="WORK&#10;PACKAGE 1" style="whiteSpace=wrap;rounded=1;fillColor=#999999;strokeColor=none;shadow=1;fontColor=#FFFFFF;fontStyle=0" vertex="1" parent="1">
                    <mxGeometry x="509.9999999999998" y="510.0000000000001" width="120" height="60" as="geometry"/>
                </mxCell>
                <mxCell id="60" value="WORK&#10;PACKAGE 2" style="whiteSpace=wrap;rounded=1;fillColor=#999999;strokeColor=none;shadow=1;fontColor=#FFFFFF;fontStyle=0" vertex="1" parent="1">
                    <mxGeometry x="509.9999999999999" y="590.0000000000001" width="120" height="60" as="geometry"/>
                </mxCell>
                <mxCell id="61" value="WORK&#10;PACKAGE 3" style="whiteSpace=wrap;rounded=1;fillColor=#999999;strokeColor=none;shadow=1;fontColor=#FFFFFF;fontStyle=0" vertex="1" parent="1">
                    <mxGeometry x="509.9999999999998" y="670.0000000000001" width="120" height="60" as="geometry"/>
                </mxCell>
                <mxCell id="62" value="WORK&#10;PACKAGE 4" style="whiteSpace=wrap;rounded=1;fillColor=#999999;strokeColor=none;shadow=1;fontColor=#FFFFFF;fontStyle=0" vertex="1" parent="1">
                    <mxGeometry x="510" y="750.0000000000001" width="120" height="60" as="geometry"/>
                </mxCell>
                <mxCell id="63" value="WORK&#10;PACKAGE 5" style="whiteSpace=wrap;rounded=1;fillColor=#999999;strokeColor=none;shadow=1;fontColor=#FFFFFF;fontStyle=0" vertex="1" parent="1">
                    <mxGeometry x="510.0000000000001" y="830.0000000000001" width="120" height="60" as="geometry"/>
                </mxCell>
                <mxCell id="64" value="WORK&#10;PACKAGE 1" style="whiteSpace=wrap;rounded=1;fillColor=#999999;strokeColor=none;shadow=1;fontColor=#FFFFFF;fontStyle=0" vertex="1" parent="1">
                    <mxGeometry x="709.9999999999993" y="510.0000000000001" width="120" height="60" as="geometry"/>
                </mxCell>
                <mxCell id="65" value="WORK&#10;PACKAGE 2" style="whiteSpace=wrap;rounded=1;fillColor=#999999;strokeColor=none;shadow=1;fontColor=#FFFFFF;fontStyle=0" vertex="1" parent="1">
                    <mxGeometry x="709.9999999999995" y="590.0000000000001" width="120" height="60" as="geometry"/>
                </mxCell>
                <mxCell id="66" value="WORK&#10;PACKAGE 3" style="whiteSpace=wrap;rounded=1;fillColor=#999999;strokeColor=none;shadow=1;fontColor=#FFFFFF;fontStyle=0" vertex="1" parent="1">
                    <mxGeometry x="709.9999999999995" y="670.0000000000001" width="120" height="60" as="geometry"/>
                </mxCell>
                <mxCell id="67" value="WORK&#10;PACKAGE 4" style="whiteSpace=wrap;rounded=1;fillColor=#999999;strokeColor=none;shadow=1;fontColor=#FFFFFF;fontStyle=0" vertex="1" parent="1">
                    <mxGeometry x="709.9999999999995" y="750.0000000000001" width="120" height="60" as="geometry"/>
                </mxCell>
                <mxCell id="68" value="WORK&#10;PACKAGE 5" style="whiteSpace=wrap;rounded=1;fillColor=#999999;strokeColor=none;shadow=1;fontColor=#FFFFFF;fontStyle=0" vertex="1" parent="1">
                    <mxGeometry x="709.9999999999998" y="830.0000000000001" width="120" height="60" as="geometry"/>
                </mxCell>
                <mxCell id="69" value="" style="edgeStyle=elbowEdgeStyle;elbow=horizontal;rounded=0;fontColor=#000000;endArrow=none;endFill=0;strokeWidth=8;strokeColor=#23445D;" edge="1" parent="1" source="57" target="59">
                    <mxGeometry width="100" height="100" relative="1" as="geometry">
                        <mxPoint x="490" y="440.00000000000045" as="sourcePoint"/>
                        <mxPoint x="499.99999999999955" y="540" as="targetPoint"/>
                        <Array as="points">
                            <mxPoint x="490" y="490"/>
                        </Array>
                    </mxGeometry>
                </mxCell>
                <mxCell id="70" value="" style="edgeStyle=elbowEdgeStyle;elbow=horizontal;rounded=0;fontColor=#000000;endArrow=none;endFill=0;strokeWidth=8;strokeColor=#23445D;" edge="1" parent="1" source="57" target="60">
                    <mxGeometry width="100" height="100" relative="1" as="geometry">
                        <mxPoint x="500" y="440" as="sourcePoint"/>
                        <mxPoint x="499.9999999999998" y="620" as="targetPoint"/>
                        <Array as="points">
                            <mxPoint x="490" y="530"/>
                        </Array>
                    </mxGeometry>
                </mxCell>
                <mxCell id="71" value="" style="edgeStyle=elbowEdgeStyle;elbow=horizontal;rounded=0;fontColor=#000000;endArrow=none;endFill=0;strokeWidth=8;strokeColor=#23445D;" edge="1" parent="1" source="57" target="63">
                    <mxGeometry width="100" height="100" relative="1" as="geometry">
                        <mxPoint x="500" y="440" as="sourcePoint"/>
                        <mxPoint x="500" y="860" as="targetPoint"/>
                        <Array as="points">
                            <mxPoint x="490" y="660"/>
                        </Array>
                    </mxGeometry>
                </mxCell>
                <mxCell id="72" value="" style="edgeStyle=elbowEdgeStyle;elbow=horizontal;rounded=0;fontColor=#000000;endArrow=none;endFill=0;strokeWidth=8;strokeColor=#23445D;" edge="1" parent="1" source="57" target="62">
                    <mxGeometry width="100" height="100" relative="1" as="geometry">
                        <mxPoint x="500" y="440" as="sourcePoint"/>
                        <mxPoint x="500" y="780" as="targetPoint"/>
                        <Array as="points">
                            <mxPoint x="490" y="610"/>
                        </Array>
                    </mxGeometry>
                </mxCell>
                <mxCell id="73" value="" style="edgeStyle=elbowEdgeStyle;elbow=horizontal;rounded=0;fontColor=#000000;endArrow=none;endFill=0;strokeWidth=8;strokeColor=#23445D;" edge="1" parent="1" source="57" target="61">
                    <mxGeometry width="100" height="100" relative="1" as="geometry">
                        <mxPoint x="500" y="440" as="sourcePoint"/>
                        <mxPoint x="499.9999999999998" y="700" as="targetPoint"/>
                        <Array as="points">
                            <mxPoint x="490" y="580"/>
                        </Array>
                    </mxGeometry>
                </mxCell>
                <mxCell id="74" value="" style="edgeStyle=elbowEdgeStyle;elbow=horizontal;rounded=0;fontColor=#000000;endArrow=none;endFill=0;strokeWidth=8;strokeColor=#23445D;" edge="1" parent="1" source="58" target="64">
                    <mxGeometry width="100" height="100" relative="1" as="geometry">
                        <mxPoint x="680" y="440.00000000000045" as="sourcePoint"/>
                        <mxPoint x="689.9999999999995" y="540" as="targetPoint"/>
                        <Array as="points">
                            <mxPoint x="690" y="490"/>
                        </Array>
                    </mxGeometry>
                </mxCell>
                <mxCell id="75" value="" style="edgeStyle=elbowEdgeStyle;elbow=horizontal;rounded=0;fontColor=#000000;endArrow=none;endFill=0;strokeWidth=8;strokeColor=#23445D;" edge="1" parent="1" source="58" target="65">
                    <mxGeometry width="100" height="100" relative="1" as="geometry">
                        <mxPoint x="690" y="440" as="sourcePoint"/>
                        <mxPoint x="689.9999999999998" y="620" as="targetPoint"/>
                        <Array as="points">
                            <mxPoint x="690" y="530"/>
                        </Array>
                    </mxGeometry>
                </mxCell>
                <mxCell id="76" value="" style="edgeStyle=elbowEdgeStyle;elbow=horizontal;rounded=0;fontColor=#000000;endArrow=none;endFill=0;strokeWidth=8;strokeColor=#23445D;" edge="1" parent="1" source="58" target="68">
                    <mxGeometry width="100" height="100" relative="1" as="geometry">
                        <mxPoint x="690" y="440" as="sourcePoint"/>
                        <mxPoint x="690" y="860" as="targetPoint"/>
                        <Array as="points">
                            <mxPoint x="690" y="650"/>
                        </Array>
                    </mxGeometry>
                </mxCell>
                <mxCell id="77" value="" style="edgeStyle=elbowEdgeStyle;elbow=horizontal;rounded=0;fontColor=#000000;endArrow=none;endFill=0;strokeWidth=8;strokeColor=#23445D;" edge="1" parent="1" source="58" target="67">
                    <mxGeometry width="100" height="100" relative="1" as="geometry">
                        <mxPoint x="690" y="440" as="sourcePoint"/>
                        <mxPoint x="690" y="780" as="targetPoint"/>
                        <Array as="points">
                            <mxPoint x="690" y="610"/>
                        </Array>
                    </mxGeometry>
                </mxCell>
                <mxCell id="78" value="" style="edgeStyle=elbowEdgeStyle;elbow=horizontal;rounded=0;fontColor=#000000;endArrow=none;endFill=0;strokeWidth=8;strokeColor=#23445D;" edge="1" parent="1" source="58" target="66">
                    <mxGeometry width="100" height="100" relative="1" as="geometry">
                        <mxPoint x="690" y="440" as="sourcePoint"/>
                        <mxPoint x="689.9999999999998" y="700" as="targetPoint"/>
                        <Array as="points">
                            <mxPoint x="690" y="580"/>
                        </Array>
                    </mxGeometry>
                </mxCell>
                <mxCell id="79" value="SUB-TASK 1" style="whiteSpace=wrap;rounded=1;fillColor=#12AAB5;strokeColor=none;shadow=1;fontColor=#FFFFFF;" vertex="1" parent="1">
                    <mxGeometry x="879.9999999999998" y="410.0000000000002" width="120" height="60" as="geometry"/>
                </mxCell>
                <mxCell id="80" value="SUB-TASK 2" style="whiteSpace=wrap;rounded=1;fillColor=#12AAB5;strokeColor=none;shadow=1;fontColor=#FFFFFF;" vertex="1" parent="1">
                    <mxGeometry x="1079.9999999999998" y="410.0000000000002" width="120" height="60" as="geometry"/>
                </mxCell>
                <mxCell id="81" value="WORK&#10;PACKAGE 1" style="whiteSpace=wrap;rounded=1;fillColor=#999999;strokeColor=none;shadow=1;fontColor=#FFFFFF;fontStyle=0" vertex="1" parent="1">
                    <mxGeometry x="879.9999999999998" y="510.0000000000002" width="120" height="60" as="geometry"/>
                </mxCell>
                <mxCell id="82" value="WORK&#10;PACKAGE 2" style="whiteSpace=wrap;rounded=1;fillColor=#999999;strokeColor=none;shadow=1;fontColor=#FFFFFF;fontStyle=0" vertex="1" parent="1">
                    <mxGeometry x="880" y="590.0000000000002" width="120" height="60" as="geometry"/>
                </mxCell>
                <mxCell id="83" value="WORK&#10;PACKAGE 3" style="whiteSpace=wrap;rounded=1;fillColor=#999999;strokeColor=none;shadow=1;fontColor=#FFFFFF;fontStyle=0" vertex="1" parent="1">
                    <mxGeometry x="879.9999999999998" y="670.0000000000002" width="120" height="60" as="geometry"/>
                </mxCell>
                <mxCell id="84" value="WORK&#10;PACKAGE 4" style="whiteSpace=wrap;rounded=1;fillColor=#999999;strokeColor=none;shadow=1;fontColor=#FFFFFF;fontStyle=0" vertex="1" parent="1">
                    <mxGeometry x="880" y="750.0000000000002" width="120" height="60" as="geometry"/>
                </mxCell>
                <mxCell id="85" value="WORK&#10;PACKAGE 5" style="whiteSpace=wrap;rounded=1;fillColor=#999999;strokeColor=none;shadow=1;fontColor=#FFFFFF;fontStyle=0" vertex="1" parent="1">
                    <mxGeometry x="880" y="830.0000000000002" width="120" height="60" as="geometry"/>
                </mxCell>
                <mxCell id="86" value="WORK&#10;PACKAGE 1" style="whiteSpace=wrap;rounded=1;fillColor=#999999;strokeColor=none;shadow=1;fontColor=#FFFFFF;fontStyle=0" vertex="1" parent="1">
                    <mxGeometry x="1079.9999999999993" y="510.0000000000002" width="120" height="60" as="geometry"/>
                </mxCell>
                <mxCell id="87" value="WORK&#10;PACKAGE 2" style="whiteSpace=wrap;rounded=1;fillColor=#999999;strokeColor=none;shadow=1;fontColor=#FFFFFF;fontStyle=0" vertex="1" parent="1">
                    <mxGeometry x="1079.9999999999995" y="590.0000000000002" width="120" height="60" as="geometry"/>
                </mxCell>
                <mxCell id="88" value="WORK&#10;PACKAGE 3" style="whiteSpace=wrap;rounded=1;fillColor=#999999;strokeColor=none;shadow=1;fontColor=#FFFFFF;fontStyle=0" vertex="1" parent="1">
                    <mxGeometry x="1079.9999999999995" y="670.0000000000002" width="120" height="60" as="geometry"/>
                </mxCell>
                <mxCell id="89" value="WORK&#10;PACKAGE 4" style="whiteSpace=wrap;rounded=1;fillColor=#999999;strokeColor=none;shadow=1;fontColor=#FFFFFF;fontStyle=0" vertex="1" parent="1">
                    <mxGeometry x="1079.9999999999995" y="750.0000000000002" width="120" height="60" as="geometry"/>
                </mxCell>
                <mxCell id="90" value="WORK&#10;PACKAGE 5" style="whiteSpace=wrap;rounded=1;fillColor=#999999;strokeColor=none;shadow=1;fontColor=#FFFFFF;fontStyle=0" vertex="1" parent="1">
                    <mxGeometry x="1079.9999999999998" y="830.0000000000002" width="120" height="60" as="geometry"/>
                </mxCell>
                <mxCell id="91" value="" style="edgeStyle=elbowEdgeStyle;elbow=horizontal;rounded=0;fontColor=#000000;endArrow=none;endFill=0;strokeWidth=8;strokeColor=#23445D;" edge="1" parent="1" source="79" target="81">
                    <mxGeometry width="100" height="100" relative="1" as="geometry">
                        <mxPoint x="860" y="440.00000000000057" as="sourcePoint"/>
                        <mxPoint x="869.9999999999995" y="540.0000000000001" as="targetPoint"/>
                        <Array as="points">
                            <mxPoint x="860" y="490.0000000000001"/>
                        </Array>
                    </mxGeometry>
                </mxCell>
                <mxCell id="92" value="" style="edgeStyle=elbowEdgeStyle;elbow=horizontal;rounded=0;fontColor=#000000;endArrow=none;endFill=0;strokeWidth=8;strokeColor=#23445D;" edge="1" parent="1" source="79" target="82">
                    <mxGeometry width="100" height="100" relative="1" as="geometry">
                        <mxPoint x="870" y="440.0000000000001" as="sourcePoint"/>
                        <mxPoint x="869.9999999999998" y="620.0000000000001" as="targetPoint"/>
                        <Array as="points">
                            <mxPoint x="860" y="530.0000000000001"/>
                        </Array>
                    </mxGeometry>
                </mxCell>
                <mxCell id="93" value="" style="edgeStyle=elbowEdgeStyle;elbow=horizontal;rounded=0;fontColor=#000000;endArrow=none;endFill=0;strokeWidth=8;strokeColor=#23445D;" edge="1" parent="1" source="79" target="85">
                    <mxGeometry width="100" height="100" relative="1" as="geometry">
                        <mxPoint x="870" y="440.0000000000001" as="sourcePoint"/>
                        <mxPoint x="870" y="860.0000000000001" as="targetPoint"/>
                        <Array as="points">
                            <mxPoint x="860" y="660.0000000000001"/>
                        </Array>
                    </mxGeometry>
                </mxCell>
                <mxCell id="94" value="" style="edgeStyle=elbowEdgeStyle;elbow=horizontal;rounded=0;fontColor=#000000;endArrow=none;endFill=0;strokeWidth=8;strokeColor=#23445D;" edge="1" parent="1" source="79" target="84">
                    <mxGeometry width="100" height="100" relative="1" as="geometry">
                        <mxPoint x="870" y="440.0000000000001" as="sourcePoint"/>
                        <mxPoint x="870" y="780.0000000000001" as="targetPoint"/>
                        <Array as="points">
                            <mxPoint x="860" y="610.0000000000001"/>
                        </Array>
                    </mxGeometry>
                </mxCell>
                <mxCell id="95" value="" style="edgeStyle=elbowEdgeStyle;elbow=horizontal;rounded=0;fontColor=#000000;endArrow=none;endFill=0;strokeWidth=8;strokeColor=#23445D;" edge="1" parent="1" source="79" target="83">
                    <mxGeometry width="100" height="100" relative="1" as="geometry">
                        <mxPoint x="870" y="440.0000000000001" as="sourcePoint"/>
                        <mxPoint x="869.9999999999998" y="700.0000000000001" as="targetPoint"/>
                        <Array as="points">
                            <mxPoint x="860" y="580.0000000000001"/>
                        </Array>
                    </mxGeometry>
                </mxCell>
                <mxCell id="96" value="" style="edgeStyle=elbowEdgeStyle;elbow=horizontal;rounded=0;fontColor=#000000;endArrow=none;endFill=0;strokeWidth=8;strokeColor=#23445D;" edge="1" parent="1" source="80" target="86">
                    <mxGeometry width="100" height="100" relative="1" as="geometry">
                        <mxPoint x="1050" y="440.00000000000057" as="sourcePoint"/>
                        <mxPoint x="1059.9999999999995" y="540.0000000000001" as="targetPoint"/>
                        <Array as="points">
                            <mxPoint x="1060" y="490.0000000000001"/>
                        </Array>
                    </mxGeometry>
                </mxCell>
                <mxCell id="97" value="" style="edgeStyle=elbowEdgeStyle;elbow=horizontal;rounded=0;fontColor=#000000;endArrow=none;endFill=0;strokeWidth=8;strokeColor=#23445D;" edge="1" parent="1" source="80" target="87">
                    <mxGeometry width="100" height="100" relative="1" as="geometry">
                        <mxPoint x="1060" y="440.0000000000001" as="sourcePoint"/>
                        <mxPoint x="1059.9999999999998" y="620.0000000000001" as="targetPoint"/>
                        <Array as="points">
                            <mxPoint x="1060" y="530.0000000000001"/>
                        </Array>
                    </mxGeometry>
                </mxCell>
                <mxCell id="98" value="" style="edgeStyle=elbowEdgeStyle;elbow=horizontal;rounded=0;fontColor=#000000;endArrow=none;endFill=0;strokeWidth=8;strokeColor=#23445D;" edge="1" parent="1" source="80" target="90">
                    <mxGeometry width="100" height="100" relative="1" as="geometry">
                        <mxPoint x="1060" y="440.0000000000001" as="sourcePoint"/>
                        <mxPoint x="1060" y="860.0000000000001" as="targetPoint"/>
                        <Array as="points">
                            <mxPoint x="1060" y="650.0000000000001"/>
                        </Array>
                    </mxGeometry>
                </mxCell>
                <mxCell id="99" value="" style="edgeStyle=elbowEdgeStyle;elbow=horizontal;rounded=0;fontColor=#000000;endArrow=none;endFill=0;strokeWidth=8;strokeColor=#23445D;" edge="1" parent="1" source="80" target="89">
                    <mxGeometry width="100" height="100" relative="1" as="geometry">
                        <mxPoint x="1060" y="440.0000000000001" as="sourcePoint"/>
                        <mxPoint x="1060" y="780.0000000000001" as="targetPoint"/>
                        <Array as="points">
                            <mxPoint x="1060" y="610.0000000000001"/>
                        </Array>
                    </mxGeometry>
                </mxCell>
                <mxCell id="100" value="" style="edgeStyle=elbowEdgeStyle;elbow=horizontal;rounded=0;fontColor=#000000;endArrow=none;endFill=0;strokeWidth=8;strokeColor=#23445D;" edge="1" parent="1" source="80" target="88">
                    <mxGeometry width="100" height="100" relative="1" as="geometry">
                        <mxPoint x="1060" y="440.0000000000001" as="sourcePoint"/>
                        <mxPoint x="1059.9999999999998" y="700.0000000000001" as="targetPoint"/>
                        <Array as="points">
                            <mxPoint x="1060" y="580.0000000000001"/>
                        </Array>
                    </mxGeometry>
                </mxCell>
                <mxCell id="101" value="SUB-TASK 1" style="whiteSpace=wrap;rounded=1;fillColor=#12AAB5;strokeColor=none;shadow=1;fontColor=#FFFFFF;" vertex="1" parent="1">
                    <mxGeometry x="1249.9999999999998" y="409.9999999999999" width="120" height="60" as="geometry"/>
                </mxCell>
                <mxCell id="102" value="SUB-TASK 2" style="whiteSpace=wrap;rounded=1;fillColor=#12AAB5;strokeColor=none;shadow=1;fontColor=#FFFFFF;" vertex="1" parent="1">
                    <mxGeometry x="1449.9999999999998" y="409.9999999999999" width="120" height="60" as="geometry"/>
                </mxCell>
                <mxCell id="103" value="WORK&#10;PACKAGE 1" style="whiteSpace=wrap;rounded=1;fillColor=#999999;strokeColor=none;shadow=1;fontColor=#FFFFFF;fontStyle=0" vertex="1" parent="1">
                    <mxGeometry x="1249.9999999999998" y="509.9999999999999" width="120" height="60" as="geometry"/>
                </mxCell>
                <mxCell id="104" value="WORK&#10;PACKAGE 2" style="whiteSpace=wrap;rounded=1;fillColor=#999999;strokeColor=none;shadow=1;fontColor=#FFFFFF;fontStyle=0" vertex="1" parent="1">
                    <mxGeometry x="1250" y="589.9999999999999" width="120" height="60" as="geometry"/>
                </mxCell>
                <mxCell id="105" value="WORK&#10;PACKAGE 3" style="whiteSpace=wrap;rounded=1;fillColor=#999999;strokeColor=none;shadow=1;fontColor=#FFFFFF;fontStyle=0" vertex="1" parent="1">
                    <mxGeometry x="1249.9999999999998" y="669.9999999999999" width="120" height="60" as="geometry"/>
                </mxCell>
                <mxCell id="106" value="WORK&#10;PACKAGE 4" style="whiteSpace=wrap;rounded=1;fillColor=#999999;strokeColor=none;shadow=1;fontColor=#FFFFFF;fontStyle=0" vertex="1" parent="1">
                    <mxGeometry x="1250" y="749.9999999999999" width="120" height="60" as="geometry"/>
                </mxCell>
                <mxCell id="107" value="WORK&#10;PACKAGE 5" style="whiteSpace=wrap;rounded=1;fillColor=#999999;strokeColor=none;shadow=1;fontColor=#FFFFFF;fontStyle=0" vertex="1" parent="1">
                    <mxGeometry x="1250" y="829.9999999999999" width="120" height="60" as="geometry"/>
                </mxCell>
                <mxCell id="108" value="WORK&#10;PACKAGE 1" style="whiteSpace=wrap;rounded=1;fillColor=#999999;strokeColor=none;shadow=1;fontColor=#FFFFFF;fontStyle=0" vertex="1" parent="1">
                    <mxGeometry x="1449.9999999999993" y="509.9999999999999" width="120" height="60" as="geometry"/>
                </mxCell>
                <mxCell id="109" value="WORK&#10;PACKAGE 2" style="whiteSpace=wrap;rounded=1;fillColor=#999999;strokeColor=none;shadow=1;fontColor=#FFFFFF;fontStyle=0" vertex="1" parent="1">
                    <mxGeometry x="1449.9999999999995" y="589.9999999999999" width="120" height="60" as="geometry"/>
                </mxCell>
                <mxCell id="110" value="WORK&#10;PACKAGE 3" style="whiteSpace=wrap;rounded=1;fillColor=#999999;strokeColor=none;shadow=1;fontColor=#FFFFFF;fontStyle=0" vertex="1" parent="1">
                    <mxGeometry x="1449.9999999999995" y="669.9999999999999" width="120" height="60" as="geometry"/>
                </mxCell>
                <mxCell id="111" value="WORK&#10;PACKAGE 4" style="whiteSpace=wrap;rounded=1;fillColor=#999999;strokeColor=none;shadow=1;fontColor=#FFFFFF;fontStyle=0" vertex="1" parent="1">
                    <mxGeometry x="1449.9999999999995" y="749.9999999999999" width="120" height="60" as="geometry"/>
                </mxCell>
                <mxCell id="112" value="WORK&#10;PACKAGE 5" style="whiteSpace=wrap;rounded=1;fillColor=#999999;strokeColor=none;shadow=1;fontColor=#FFFFFF;fontStyle=0" vertex="1" parent="1">
                    <mxGeometry x="1449.9999999999998" y="829.9999999999999" width="120" height="60" as="geometry"/>
                </mxCell>
                <mxCell id="113" value="" style="edgeStyle=elbowEdgeStyle;elbow=horizontal;rounded=0;fontColor=#000000;endArrow=none;endFill=0;strokeWidth=8;strokeColor=#23445D;" edge="1" parent="1" source="101" target="103">
                    <mxGeometry width="100" height="100" relative="1" as="geometry">
                        <mxPoint x="1230" y="440.0000000000002" as="sourcePoint"/>
                        <mxPoint x="1239.9999999999995" y="539.9999999999998" as="targetPoint"/>
                        <Array as="points">
                            <mxPoint x="1230" y="489.9999999999998"/>
                        </Array>
                    </mxGeometry>
                </mxCell>
                <mxCell id="114" value="" style="edgeStyle=elbowEdgeStyle;elbow=horizontal;rounded=0;fontColor=#000000;endArrow=none;endFill=0;strokeWidth=8;strokeColor=#23445D;" edge="1" parent="1" source="101" target="104">
                    <mxGeometry width="100" height="100" relative="1" as="geometry">
                        <mxPoint x="1240" y="439.9999999999998" as="sourcePoint"/>
                        <mxPoint x="1239.9999999999998" y="619.9999999999998" as="targetPoint"/>
                        <Array as="points">
                            <mxPoint x="1230" y="529.9999999999998"/>
                        </Array>
                    </mxGeometry>
                </mxCell>
                <mxCell id="115" value="" style="edgeStyle=elbowEdgeStyle;elbow=horizontal;rounded=0;fontColor=#000000;endArrow=none;endFill=0;strokeWidth=8;strokeColor=#23445D;" edge="1" parent="1" source="101" target="107">
                    <mxGeometry width="100" height="100" relative="1" as="geometry">
                        <mxPoint x="1240" y="439.9999999999998" as="sourcePoint"/>
                        <mxPoint x="1240" y="859.9999999999998" as="targetPoint"/>
                        <Array as="points">
                            <mxPoint x="1230" y="659.9999999999998"/>
                        </Array>
                    </mxGeometry>
                </mxCell>
                <mxCell id="116" value="" style="edgeStyle=elbowEdgeStyle;elbow=horizontal;rounded=0;fontColor=#000000;endArrow=none;endFill=0;strokeWidth=8;strokeColor=#23445D;" edge="1" parent="1" source="101" target="106">
                    <mxGeometry width="100" height="100" relative="1" as="geometry">
                        <mxPoint x="1240" y="439.9999999999998" as="sourcePoint"/>
                        <mxPoint x="1240" y="779.9999999999998" as="targetPoint"/>
                        <Array as="points">
                            <mxPoint x="1230" y="609.9999999999998"/>
                        </Array>
                    </mxGeometry>
                </mxCell>
                <mxCell id="117" value="" style="edgeStyle=elbowEdgeStyle;elbow=horizontal;rounded=0;fontColor=#000000;endArrow=none;endFill=0;strokeWidth=8;strokeColor=#23445D;" edge="1" parent="1" source="101" target="105">
                    <mxGeometry width="100" height="100" relative="1" as="geometry">
                        <mxPoint x="1240" y="439.9999999999998" as="sourcePoint"/>
                        <mxPoint x="1239.9999999999998" y="699.9999999999998" as="targetPoint"/>
                        <Array as="points">
                            <mxPoint x="1230" y="579.9999999999998"/>
                        </Array>
                    </mxGeometry>
                </mxCell>
                <mxCell id="118" value="" style="edgeStyle=elbowEdgeStyle;elbow=horizontal;rounded=0;fontColor=#000000;endArrow=none;endFill=0;strokeWidth=8;strokeColor=#23445D;" edge="1" parent="1" source="102" target="108">
                    <mxGeometry width="100" height="100" relative="1" as="geometry">
                        <mxPoint x="1420" y="440.0000000000002" as="sourcePoint"/>
                        <mxPoint x="1429.9999999999995" y="539.9999999999998" as="targetPoint"/>
                        <Array as="points">
                            <mxPoint x="1430" y="489.9999999999998"/>
                        </Array>
                    </mxGeometry>
                </mxCell>
                <mxCell id="119" value="" style="edgeStyle=elbowEdgeStyle;elbow=horizontal;rounded=0;fontColor=#000000;endArrow=none;endFill=0;strokeWidth=8;strokeColor=#23445D;" edge="1" parent="1" source="102" target="109">
                    <mxGeometry width="100" height="100" relative="1" as="geometry">
                        <mxPoint x="1430" y="439.9999999999998" as="sourcePoint"/>
                        <mxPoint x="1429.9999999999998" y="619.9999999999998" as="targetPoint"/>
                        <Array as="points">
                            <mxPoint x="1430" y="529.9999999999998"/>
                        </Array>
                    </mxGeometry>
                </mxCell>
                <mxCell id="120" value="" style="edgeStyle=elbowEdgeStyle;elbow=horizontal;rounded=0;fontColor=#000000;endArrow=none;endFill=0;strokeWidth=8;strokeColor=#23445D;" edge="1" parent="1" source="102" target="112">
                    <mxGeometry width="100" height="100" relative="1" as="geometry">
                        <mxPoint x="1430" y="439.9999999999998" as="sourcePoint"/>
                        <mxPoint x="1430" y="859.9999999999998" as="targetPoint"/>
                        <Array as="points">
                            <mxPoint x="1430" y="649.9999999999998"/>
                        </Array>
                    </mxGeometry>
                </mxCell>
                <mxCell id="121" value="" style="edgeStyle=elbowEdgeStyle;elbow=horizontal;rounded=0;fontColor=#000000;endArrow=none;endFill=0;strokeWidth=8;strokeColor=#23445D;" edge="1" parent="1" source="102" target="111">
                    <mxGeometry width="100" height="100" relative="1" as="geometry">
                        <mxPoint x="1430" y="439.9999999999998" as="sourcePoint"/>
                        <mxPoint x="1430" y="779.9999999999998" as="targetPoint"/>
                        <Array as="points">
                            <mxPoint x="1430" y="609.9999999999998"/>
                        </Array>
                    </mxGeometry>
                </mxCell>
                <mxCell id="122" value="" style="edgeStyle=elbowEdgeStyle;elbow=horizontal;rounded=0;fontColor=#000000;endArrow=none;endFill=0;strokeWidth=8;strokeColor=#23445D;" edge="1" parent="1" source="102" target="110">
                    <mxGeometry width="100" height="100" relative="1" as="geometry">
                        <mxPoint x="1430" y="439.9999999999998" as="sourcePoint"/>
                        <mxPoint x="1429.9999999999998" y="699.9999999999998" as="targetPoint"/>
                        <Array as="points">
                            <mxPoint x="1430" y="579.9999999999998"/>
                        </Array>
                    </mxGeometry>
                </mxCell>
                <mxCell id="145" value="" style="edgeStyle=elbowEdgeStyle;elbow=vertical;rounded=0;fontColor=#000000;endArrow=none;endFill=0;strokeWidth=8;strokeColor=#23445D;" edge="1" parent="1" source="6" target="57">
                    <mxGeometry width="100" height="100" relative="1" as="geometry">
                        <mxPoint x="480" y="380" as="sourcePoint"/>
                        <mxPoint x="580" y="280" as="targetPoint"/>
                    </mxGeometry>
                </mxCell>
                <mxCell id="146" value="" style="edgeStyle=elbowEdgeStyle;elbow=vertical;rounded=0;fontColor=#000000;endArrow=none;endFill=0;strokeWidth=8;strokeColor=#23445D;" edge="1" parent="1" source="6" target="58">
                    <mxGeometry width="100" height="100" relative="1" as="geometry">
                        <mxPoint x="730" y="390" as="sourcePoint"/>
                        <mxPoint x="830" y="290" as="targetPoint"/>
                    </mxGeometry>
                </mxCell>
                <mxCell id="147" value="" style="edgeStyle=elbowEdgeStyle;elbow=vertical;rounded=0;fontColor=#000000;endArrow=none;endFill=0;strokeWidth=8;strokeColor=#23445D;" edge="1" parent="1" source="7" target="79">
                    <mxGeometry width="100" height="100" relative="1" as="geometry">
                        <mxPoint x="1040" y="410" as="sourcePoint"/>
                        <mxPoint x="940" y="300" as="targetPoint"/>
                    </mxGeometry>
                </mxCell>
                <mxCell id="148" value="" style="edgeStyle=elbowEdgeStyle;elbow=vertical;rounded=0;fontColor=#000000;endArrow=none;endFill=0;strokeWidth=8;strokeColor=#23445D;" edge="1" parent="1" source="7" target="80">
                    <mxGeometry width="100" height="100" relative="1" as="geometry">
                        <mxPoint x="1130" y="400" as="sourcePoint"/>
                        <mxPoint x="1230" y="300" as="targetPoint"/>
                    </mxGeometry>
                </mxCell>
                <mxCell id="149" value="" style="edgeStyle=elbowEdgeStyle;elbow=vertical;rounded=0;fontColor=#000000;endArrow=none;endFill=0;strokeWidth=8;strokeColor=#23445D;" edge="1" parent="1" source="8" target="101">
                    <mxGeometry width="100" height="100" relative="1" as="geometry">
                        <mxPoint x="1250" y="400" as="sourcePoint"/>
                        <mxPoint x="1350" y="300" as="targetPoint"/>
                    </mxGeometry>
                </mxCell>
                <mxCell id="150" value="" style="edgeStyle=elbowEdgeStyle;elbow=vertical;rounded=0;fontColor=#000000;endArrow=none;endFill=0;strokeWidth=8;strokeColor=#23445D;" edge="1" parent="1" source="8" target="102">
                    <mxGeometry width="100" height="100" relative="1" as="geometry">
                        <mxPoint x="1480" y="400" as="sourcePoint"/>
                        <mxPoint x="1580" y="300" as="targetPoint"/>
                    </mxGeometry>
                </mxCell>
                <mxCell id="154" value="" style="edgeStyle=elbowEdgeStyle;elbow=vertical;rounded=0;fontColor=#000000;endArrow=none;endFill=0;strokeWidth=8;strokeColor=#23445D;" edge="1" parent="1" source="2" target="4">
                    <mxGeometry width="100" height="100" relative="1" as="geometry">
                        <mxPoint x="250" y="260" as="sourcePoint"/>
                        <mxPoint x="350" y="160" as="targetPoint"/>
                    </mxGeometry>
                </mxCell>
                <mxCell id="155" value="" style="edgeStyle=elbowEdgeStyle;elbow=vertical;rounded=0;fontColor=#000000;endArrow=none;endFill=0;strokeWidth=8;strokeColor=#23445D;" edge="1" parent="1" source="2" target="6">
                    <mxGeometry width="100" height="100" relative="1" as="geometry">
                        <mxPoint x="260" y="270" as="sourcePoint"/>
                        <mxPoint x="360" y="170" as="targetPoint"/>
                    </mxGeometry>
                </mxCell>
                <mxCell id="156" value="" style="edgeStyle=elbowEdgeStyle;elbow=vertical;rounded=0;fontColor=#000000;endArrow=none;endFill=0;strokeWidth=8;strokeColor=#23445D;" edge="1" parent="1" source="2" target="7">
                    <mxGeometry width="100" height="100" relative="1" as="geometry">
                        <mxPoint x="270" y="280" as="sourcePoint"/>
                        <mxPoint x="370" y="180" as="targetPoint"/>
                    </mxGeometry>
                </mxCell>
                <mxCell id="157" value="" style="edgeStyle=elbowEdgeStyle;elbow=vertical;rounded=0;fontColor=#000000;endArrow=none;endFill=0;strokeWidth=8;strokeColor=#23445D;" edge="1" parent="1" source="2" target="8">
                    <mxGeometry width="100" height="100" relative="1" as="geometry">
                        <mxPoint x="280" y="290" as="sourcePoint"/>
                        <mxPoint x="380" y="190" as="targetPoint"/>
                    </mxGeometry>
                </mxCell>
            </root>
        </mxGraphModel>
    </diagram>
</mxfile>